<svg width="31" height="30" viewBox="0 0 31 30" xmlns="http://www.w3.org/2000/svg"><path d="M27.87 0H3.855A3.01 3.01 0 0 0 .854 3v24c0 1.65 1.35 3 3.002 3h24.013a3.01 3.01 0 0 0 3.002-3V3c0-1.65-1.35-3-3.002-3zm-6.004 10.5V12c0 .9.6 1.5 1.5 1.5.901 0 1.502.6 1.502 1.5v4.5c0 2.55-1.952 4.5-4.503 4.5H11.36c-2.552 0-4.503-1.95-4.503-4.5V9c0-2.55 1.951-4.5 4.503-4.5h6.003c2.552 0 4.503 1.95 4.503 4.5v1.5zM12.86 12h3.902c.9 0 1.5-.6 1.5-1.5s-.6-1.5-1.5-1.5H12.86c-.9 0-1.501.6-1.501 1.5s.6 1.5 1.5 1.5zm6.003 4.5H12.86c-.9 0-1.501.6-1.501 1.5s.6 1.5 1.5 1.5h6.004c.9 0 1.501-.6 1.501-1.5s-.6-1.5-1.5-1.5z" fill="#FFF" fill-rule="evenodd"/></svg>