<svg width="102" height="102" viewBox="0 0 102 102" xmlns="http://www.w3.org/2000/svg" xmlns:xlink="http://www.w3.org/1999/xlink"><defs><path id="a" d="M0 102h102V0H0z"/></defs><g fill="none" fill-rule="evenodd"><path d="M51 101c27.614 0 50-22.386 50-50S78.614 1 51 1 1 23.386 1 51s22.386 50 50 50" fill="#E6F9F8"/><path d="M51 101c27.614 0 50-22.386 50-50S78.614 1 51 1 1 23.386 1 51s22.386 50 50 50" stroke="#00B8B0" stroke-width="2"/><path d="M72 82.47H30a4 4 0 0 1-4-4V23.72a4 4 0 0 1 4-4h42a4 4 0 0 1 4 4v54.75a4 4 0 0 1-4 4" fill="#FFF"/><path d="M72 82.47H30a4 4 0 0 1-4-4V23.72a4 4 0 0 1 4-4h42a4 4 0 0 1 4 4v54.75a4 4 0 0 1-4 4z" stroke="#00B8B0" stroke-width="2"/><mask id="b" fill="#fff"><use xlink:href="#a"/></mask><path fill="#FFF" mask="url(#b)" d="M38.683 23.47h24.634v-7.25H38.683z"/><path d="M39.74 42.813H35.9a1.617 1.617 0 0 1-1.617-1.616v-3.839c0-.892.724-1.616 1.617-1.616h3.838c.893 0 1.616.724 1.616 1.616v3.839c0 .892-.723 1.616-1.616 1.616zm0 14.348H35.9a1.617 1.617 0 0 1-1.617-1.616v-3.839c0-.892.724-1.616 1.617-1.616h3.838c.893 0 1.616.724 1.616 1.616v3.84c0 .891-.723 1.615-1.616 1.615zm0 14.349H35.9a1.617 1.617 0 0 1-1.617-1.617v-3.839c0-.892.724-1.616 1.617-1.616h3.838c.893 0 1.616.724 1.616 1.616v3.84c0 .891-.723 1.615-1.616 1.615zm15.483-56.29a4.223 4.223 0 0 0-8.446 0H42.75v9.5h16.5v-9.5h-4.027z" stroke="#00B8B0" stroke-width="2" mask="url(#b)"/><path d="M47.029 36.742h16.333M47.029 41.47h9.549m-9.549 9.792h16.333M47.029 55.99h9.549m-9.549 9.791h16.333m-16.333 4.728h9.549" stroke="#00B8B0" stroke-width="2" stroke-linecap="round" mask="url(#b)"/></g></svg>