<svg width="102" height="102" viewBox="0 0 102 102" xmlns="http://www.w3.org/2000/svg"><g fill="none" fill-rule="evenodd"><path d="M51 101c27.614 0 50-22.386 50-50S78.614 1 51 1 1 23.386 1 51s22.386 50 50 50" fill="#E6F9F8"/><path d="M51 101c27.614 0 50-22.386 50-50S78.614 1 51 1 1 23.386 1 51s22.386 50 50 50" stroke="#00B8B0" stroke-width="2"/><path d="M92.432 57.03c0-7.556-18.55-13.68-41.432-13.68S9.569 49.474 9.569 57.03c0 7.554 18.549 13.678 41.43 13.678 22.883 0 41.433-6.124 41.433-13.679z" stroke="#00B8B0" stroke-width="2"/><path d="M72.393 54.029c0-3.901-9.578-7.063-21.393-7.063-11.815 0-21.393 3.162-21.393 7.063S39.185 61.092 51 61.092c11.815 0 21.393-3.162 21.393-7.063z" stroke="#00B8B0" stroke-width="2"/><path d="M58.836 46A7.836 7.836 0 0 1 51 53.835a7.836 7.836 0 0 1-7.836-7.837C43.164 41.67 51 28.161 51 28.161S58.836 41.672 58.836 46" fill="#FFF"/><path d="M58.836 46A7.836 7.836 0 0 1 51 53.835a7.836 7.836 0 0 1-7.836-7.837C43.164 41.67 51 28.161 51 28.161S58.836 41.672 58.836 46z" stroke="#00B8B0" stroke-width="2"/></g></svg>