<svg width="31" height="30" viewBox="0 0 31 30" xmlns="http://www.w3.org/2000/svg"><path d="M27.567 0H3.553A3.01 3.01 0 0 0 .552 3v24c0 1.65 1.35 3 3.001 3h24.014a3.01 3.01 0 0 0 3.002-3V3c0-1.65-1.351-3-3.002-3zM15.56 9c3.302 0 6.004 2.7 6.004 6s-2.702 6-6.004 6c-3.302 0-6.003-2.7-6.003-6s2.701-6 6.003-6zM4.304 27c-.45 0-.75-.3-.75-.75V13.5h3.151c-.15.45-.15 1.05-.15 1.5 0 4.95 4.052 9 9.005 9 4.953 0 9.005-4.05 9.005-9 0-.45 0-1.05-.15-1.5h3.152v12.75c0 .45-.3.75-.75.75H4.304zM27.567 6.75c0 .45-.3.75-.75.75h-3.002c-.45 0-.75-.3-.75-.75v-3c0-.45.3-.75.75-.75h3.002c.45 0 .75.3.75.75v3z" fill="#FFF" fill-rule="evenodd"/></svg>