<svg width="102" height="102" viewBox="0 0 102 102" xmlns="http://www.w3.org/2000/svg"><g fill="none" fill-rule="evenodd"><path d="M51 101c27.614 0 50-22.386 50-50S78.614 1 51 1 1 23.386 1 51s22.386 50 50 50" fill="#E6F9F8"/><path d="M51 101c27.614 0 50-22.386 50-50S78.614 1 51 1 1 23.386 1 51s22.386 50 50 50" stroke="#00B8B0" stroke-width="2"/><path d="M12.393 64.554c0-8.62 8.535-15.61 19.063-15.61 10.528 0 19.063 6.99 19.063 15.61 0 8.621-8.535 15.61-19.063 15.61-2.354 0-4.606-.352-6.687-.99l-3.809 2.913v-4.504C15.8 74.79 12.393 70 12.393 64.555" fill="#FFF"/><path d="M12.393 64.554c0-8.62 8.535-15.61 19.063-15.61 10.528 0 19.063 6.99 19.063 15.61 0 8.621-8.535 15.61-19.063 15.61-2.354 0-4.606-.352-6.687-.99l-3.809 2.913v-4.504C15.8 74.79 12.393 70 12.393 64.555z" stroke="#00B8B0" stroke-width="2"/><path d="M89.015 46.37c0-14.613-14.465-26.458-32.31-26.458-17.844 0-32.309 11.845-32.309 26.457s14.465 26.457 32.309 26.457c3.989 0 7.807-.596 11.334-1.678l6.456 4.938v-7.634c8.747-4.735 14.52-12.855 14.52-22.083" fill="#FFF"/><path d="M89.015 46.37c0-14.613-14.465-26.458-32.31-26.458-17.844 0-32.309 11.845-32.309 26.457s14.465 26.457 32.309 26.457c3.989 0 7.807-.596 11.334-1.678l6.456 4.938v-7.634c8.747-4.735 14.52-12.855 14.52-22.083z" stroke="#00B8B0" stroke-width="2"/><path d="M39.164 37.01h35.083m-35.083 6.977h27.223m-27.223 6.025h35.083M39.164 56.99h27.223" stroke="#00B8B0" stroke-width="2" stroke-linecap="round"/></g></svg>