<svg width="31" height="30" viewBox="0 0 31 30" xmlns="http://www.w3.org/2000/svg"><path d="M27.791 0H3.778A3.01 3.01 0 0 0 .776 3v24c0 1.65 1.35 3 3.002 3H27.79a3.01 3.01 0 0 0 3.002-3V3c0-1.65-1.35-3-3.002-3zM24.34 10.95c-.15 6.9-4.502 11.7-11.106 12-2.702.15-4.653-.75-6.454-1.8 1.951.3 4.503-.45 5.854-1.65-1.952-.15-3.152-1.2-3.753-2.85.6.15 1.201 0 1.651 0-1.8-.6-3.001-1.65-3.151-4.05.45.3 1.05.45 1.65.45-1.35-.75-2.25-3.6-1.2-5.4 1.951 2.1 4.352 3.9 8.255 4.2-1.051-4.2 4.652-6.45 6.903-3.6 1.051-.15 1.801-.6 2.552-.9-.3 1.05-.9 1.65-1.651 2.25.75-.15 1.5-.3 2.101-.6-.15.75-.9 1.35-1.65 1.95z" fill="#FFF" fill-rule="evenodd"/></svg>