<svg width="31" height="30" viewBox="0 0 31 30" xmlns="http://www.w3.org/2000/svg"><path d="M.078 4c0-2.21 1.788-4 4.002-4h22.014a3.998 3.998 0 0 1 4.001 4v22c0 2.21-1.788 4-4.001 4H4.08a3.998 3.998 0 0 1-4.002-4V4zm12.994 13.577v-5.444l5.271 2.731-5.27 2.713zm10.8-8.31c-.743-.772-1.574-.776-1.955-.82-2.73-.197-6.826-.197-6.826-.197-.009 0-4.104 0-6.834.196-.382.045-1.213.049-1.956.82-.585.589-.775 1.924-.775 1.924s-.195 1.568-.195 3.135v1.47c0 1.569.195 3.136.195 3.136s.19 1.335.775 1.923c.743.772 1.718.748 2.152.829 1.56.148 6.634.194 6.634.194s4.1-.006 6.83-.202c.38-.045 1.212-.049 1.954-.82.585-.589.776-1.924.776-1.924s.195-1.567.195-3.136v-1.47c0-1.567-.195-3.135-.195-3.135s-.19-1.335-.776-1.923z" fill="#FFF" fill-rule="evenodd"/></svg>