<svg xmlns="http://www.w3.org/2000/svg" viewBox="0 0 157.92169 96.500001" width="157.922" height="96.5"><path d="M41.3 74.3c-.5-.2-1.1-.3-1.6-.5-.5 2-.9 4.1-1.4 6.3.3.2.5.2.8.3.6-2.2 1.4-4.2 2.2-6.1zm-18.2 4.1c-.6.2-1.3.3-1.9.6.5 1.6 1.1 3.1 1.6 4.7.6-.3 1.9-.6 1.9-.8-.5-1.5-1.1-3.1-1.6-4.5zm32.8-42.2c.9 2.5 1.6 4.5 2.3 6.6 3.9-3.3 3.6-4.4-2.3-6.6zM39.6 81.4c4.2-.5 5-1.9 3.3-6.6-1 2-1.9 4-3.3 6.6zm-.3 12.5c.3-.3.5-.6.8-1.1-.8-2-1.4-4.1-2.2-6.1h-1.3c-.6 2-1.3 3.9-1.9 6 1.6.6 3.2.9 4.6 1.2zm2.2-11.3c-.2.5-.3.9-.5 1.4 1.7.9 3.6 2 6.6 3.6v-5.8c-2.1.3-4.1.6-6.1.8zm.3 9.9c.5.2.9.3 1.4.5.8-1.4 2.5-3.8 2-4.2-1.3-1.4-3.3-2.2-5-3.3-.3.3-.6.6-.8.9.8 1.8 1.6 4 2.4 6.1zm-7.5-7.7c.2-.6.3-1.4.5-2-2-.8-4.2-1.6-6.3-2.2-.2 1.4-.5 2.8-.6 4.4h6.4v-.2zm-2.5 7.5c.5-.2.8-.3 1.3-.3.9-2 1.9-4.1 2.8-6-.3-.3-.5-.6-.8-.9-2 1.1-4.1 2.2-6 3.3.9 1.1 1.7 2.5 2.7 3.9zM3.9 83.7c3.8.3 5-.9 6-4.5.8-3 2.5-5.8 4.1-8.5.5-.9 2.3-1.6 3.4-1.6 5.2.6 9.2.2 9.4-6.1-2-2.2-5.3-4.1-5.8-6.6-.6-3.6-4.5-6-3.3-10 .2-.3-.9-1.3-1.7-1.6-1.4-.5-2.8-.5-4.9-.8 1.3-2.8 2.5-5.3 3.4-7.2 3.8 2.8 7.4 5.3 10.8 8.1.6.5 1.1 2.2.8 2.7-.6.9-1.9 1.6-3.1 2.3 1.4 4.2 4.2 6.1 7.8 5 1.6-.5 2.3-1.4 1.3-2.8-2.2-3-1.3-5.8 1.1-7.8 1.1-.9 3.4-1.3 5-.8 1.9.5 3.1 2.3 2.2 4.4-1.1 2.5-.2 4.4 1.1 6.4 1.3 1.9 2.8 4.2 2.7 6.3 0 2.5-1.6 4.9-2.5 7.4-.5.9-1.1 1.7-1.9 3 1.7.8 3.1 1.4 5 2.2.5-2 .9-3.9 1.1-5.6.3-3 .5-6 .6-8.9.2-2.2.2-4.1-2.2-5.5-.8-.5-.9-2.3-.9-3.4.2-3.4.5-7 .8-10.8-3-.3-5.5-.5-8.1-.8-2.7-.3-3.1-1.7-2-3.9 1.3-2.3 3-4.4 1.3-7.4-.2-.3.8-1.9 1.4-2 .5-.2 1.6.6 2.2 1.3.8.8 1.3 1.7 1.9 2.3-.5 1.6-.9 3.3-1.6 5.8 2.3-1.4 4.1-2.3 5.8-3.4-2.8-3-2.8-7.2-.2-10 1.7-2 6.4-1.3 7.7 1.4.5.9 1.1 2.2.8 3.1-.8 4.2 1.4 6.1 5 7.7 2.7 1.1 4.9 2.8 7.4 4.4 1.6 1.1 1.9 2.7.3 3.9-5.5 4.2-6 9.2-4.1 15.7 1.1 3.8.6 8.1.8 12.2.2 2.8.3 5.8.5 8.6.2 1.9.9 3.8-1.7 4.7-.5.2-.3 1.9-.2 2.8.8 4.4-2.5 7.7-6.9 6.7.8-1.9 1.7-3.6 2.2-5.6 1.1-4.5.5-5.2-4.5-4.1 1.3 4.1.2 7-4.1 8.9-2.8 1.3-5.3 3.8-8.1 4.5-5.2 1.3-7.7-.3-13-5.6v2c-.3 2.3-1.6 4.1-4.1 3.9-2.7-.2-3.9-2-3.8-4.5.2-2.3.8-4.5.6-6.7-.2-1.3-1.1-2.7-2.2-3.4-.3-.3-2.2.9-3 1.7-1.3 1.3-2.2 2.8-3.1 4.2-2.8 4.5-5.5 4.9-8.9.8-.9-1.4-1.4-2.8-2.5-4.7 1.7 0 2.8.2 3.9.2z" fill="#d0d0d0"/><path d="M103.2 42.2c.3 0 .6-.2.9-.2.6-2 1.3-4.2 1.7-6.3-.3-.2-.5-.5-.8-.6-1.4.9-3.3 1.7-3.8 3.1-.4.9 1.4 2.6 2 4m30.9 52.9c-2.7.6-4.7 1.4-6.7 1.4-3.8 0-4.2-1.3-3.4-4.9.9-4.7 1.3-9.4 1.7-14.1.5-4.5.5-6.6 1.1-11.1.6-4.1-1.9-5.6-4.7-7.8-.5.9-.8 1.6-1.4 3-1.3-2-2.2-3.4-3.3-5.2.2 2.5.6 5.2.3 7.7-.3 3.3-1.3 6.6-1.7 10-.6 5.3-.9 10.7 2.3 16.1-1.4-.3-3.3-.2-4.1-1.1-1.3-1.4-2.3-3.6-2.3-5.3-.2-4.7.3-9.4.3-14.1 0-.9-1.3-2.7-1.9-2.7-1.1 0-3.1.9-3.3 1.7-.5 4.1-.9 8.3-.6 12.4.3 3 1.7 6 2.7 8.9-4.1 1.1-7.7-2-6.9-6.4.5-2.8.5-5.6.5-8.5 0-1.9-.2-3.8 0-5.6 0-1.7.2-3.1-1.6-4.2-.8-.6-1.1-2.7-.8-3.9.6-4.1 1.4-8.3 2.5-12.4.6-2 .5-3.6-1.3-5.2-1.3-1.3-2.2-2.8-3.4-3.9-2.2-2.2-1.7-3.9.8-5.2 4.4-2.2 7.7-6.3 8.9-11.4.6-2 2.5-4.2 4.5-5.5 1.6-.9 4.4-1.3 5.8-.5 1.4.8 2.5 3.3 2.8 5.2.2 1.6-.9 3.4-1.7 5.8.9.6 2.7 3 4.2 4.1.3-.2.5-.3.8-.3-.5-1.7-.9-4.5-1.4-6.4.5-.6 1.1-1.7 1.9-2.5.5-.5 1.6-1.1 2-.9.6.2 1.7 1.6 1.6 1.7-2 3.3.3 6.7 1.6 9.4.3.6.3 1.4.5 2.8-3.6.3-7 .6-10.5 1.1-1.1 5.3-4.2 10.3-2.5 16 3.4-1.3 6.3-5 10.5-1.9.6.5 2.5-.5 3.4-1.3 7.7-5.6 10.7-8.9 18.3-14.7 3-2.2 3.4-2.2 5.2.9 5 9.6 4.2 7.7-3.9 11.1-4.5 1.9-4.4 1.4-8.8 3.6-.9.5-1.9 2-1.9 3.1.2 3.6-.9 6-4.7 6.7-.3 0-.6.5-1.3.8 3 7.2.8 11.7-1.3 18.6-.6 2-2.5 6.1-3.3 8.1-1.1 2.8-1.3 3.3 2.3 4.7.9.3 1.2 1 2.2 2.1" fill="#4a4a4a"/><path d="M62.1 14.6c.8-.6 1.7-2.5 3.3-3.8-3.3-1.6-6-1.9-9.4-3.6C57.6 5 59.3 2.5 61.2 0h.9c.9 5.3 5 6.6 8.8 9.6.6.5 1.1 2.2.8 2.8-.5.9-1.9 2-2.7 1.9-2.5-.6-3.1 1.3-3.8 2.8-1.6 4.1 2.5 9.9 6.9 9.9 1.1 0 2.2-.2 3.3-.3 2.3-.3 5.2.5 3.9-4.1-.8-3 2.2-5.2 5-6 .9-.3 2.5 0 3.4.6 3.1 2.2 3 5.3 0 7.5-.5.3-1.1.8-1.4.9 1.9 2.5 4.2 5.8 5.2 8.3 2.3 5.6 4.9 11.3 3.8 17.9-.2 1.4.6 2.8.3 4.2-.2 1.4-.9 2.7-2.2 3.9-1.1-6.9-1.7-13.6-4.7-20.2-4.2 3.1-4.4 7.5-3.9 11.4.5 5 1.7 10 2.8 14.9.3 1.3 1.4 2.3 2 3.6 2.7 4.5 5.5 8.9 7.8 13.6.3.8-.9 2.8-1.9 3.8-1.7 1.7-3.8 2-5 1.4-.8-2.8-1.1-4.7-2-6.4-3-5.6-6.1-11-9.1-16.6-.6-1.1-1.3-2.2-2.5-4.1-1.3 3.6-3.8 5.5-1.6 9.6 2.2 4.4 2.7 9.7 3.8 14.6.2.5-.2 1.7-.5 1.7-2.7.6-5.5 1.3-8.5 1.3 3.3-4.7.8-9.1-.3-13-2.7-8.3-1.1-16 1.3-24 1.3-3.9 1.6-8.1 2.2-12.4.5-3.6-1.3-6-4.5-7.5-6.6-2.8-6.3-6-6.1-9.7.1-2.4-.4-4.6-.6-7.3" fill="#9b9b9b"/></svg>