<svg width="149" height="146" viewBox="0 0 149 146" xmlns="http://www.w3.org/2000/svg" xmlns:xlink="http://www.w3.org/1999/xlink"><defs><path id="a" d="M40.33 35.13H.117V.513H40.33v34.619z"/><path id="c" d="M16.162 27.167H.055V.282h16.107z"/><path id="e" d="M.04.46v29.124h147.82V.46H.04z"/></defs><g fill="none" fill-rule="evenodd" opacity=".497"><path d="M46.72 64.724c-.466-.152-.93-.307-1.395-.46-.417 1.803-.836 3.608-1.256 5.412.226.068.451.139.676.206.658-1.72 1.318-3.437 1.974-5.158zm-15.897 3.53c-.525.162-1.05.327-1.575.494.445 1.365.893 2.73 1.333 4.097.563-.229 1.627-.604 1.61-.66-.385-1.332-.886-2.63-1.368-3.931zM59.409 31.62c.816 2.241 1.428 3.93 2.091 5.763 3.426-2.999 3.145-3.86-2.09-5.763zM45.265 70.98c3.708-.432 4.344-1.63 2.94-5.738-.886 1.726-1.769 3.453-2.94 5.738zm-.295 10.903l.665-.892c-.627-1.77-1.248-3.54-1.875-5.308-.357.015-.717.028-1.077.042l-1.585 5.199 3.872.959zm1.897-9.808c-.122.422-.245.846-.37 1.272l5.723 3.121v-5.084l-5.353.69zm.327 8.532l1.271.405c.664-1.29 2.188-3.31 1.83-3.735-1.08-1.286-2.89-1.955-4.417-2.864-.246.254-.492.507-.738.763l2.054 5.431zm-6.658-6.749c.125-.603.256-1.21.383-1.815-1.815-.651-3.627-1.304-5.44-1.956a1310.91 1310.91 0 0 0-.525 3.771h5.582zm-2.183 6.56c.37-.114.74-.224 1.107-.338.846-1.742 1.689-3.488 2.532-5.231-.22-.272-.436-.543-.657-.813-1.757.939-3.505 1.876-5.257 2.813.758 1.189 1.515 2.38 2.275 3.57zm-27.9-7.739c1.653.143 2.623.223 3.591.313 3.276.298 4.34-.847 5.194-3.931.725-2.62 2.109-5.106 3.523-7.454.47-.775 2.007-1.427 2.95-1.305 4.503.58 8.113.097 8.239-5.315-1.768-1.889-4.653-3.577-5.075-5.748-.598-3.075-3.995-5.163-2.821-8.727.09-.268-.887-1.157-1.492-1.335-1.171-.35-2.432-.397-4.267-.657l2.956-6.302c3.327 2.478 6.43 4.696 9.4 7.085.558.448 1.023 1.874.73 2.333-.541.847-1.678 1.309-2.693 2.022 1.264 3.73 3.69 5.387 6.827 4.39 1.427-.451 2.09-1.19 1.13-2.492-1.953-2.65-1.102-5.076.93-6.883.959-.853 3.029-1.049 4.382-.702 1.63.418 2.736 1.99 1.913 3.888-.945 2.176-.18 3.78 1.005 5.583 1.09 1.66 2.414 3.633 2.39 5.449-.036 2.152-1.353 4.304-2.228 6.409-.348.843-1 1.56-1.694 2.602 1.496.649 2.692 1.17 4.339 1.89.394-1.832.851-3.356 1.024-4.912.285-2.587.404-5.191.554-7.791.107-1.854.127-3.56-1.89-4.746-.67-.394-.882-2.022-.851-3.073.082-3.064.396-6.123.632-9.395-2.556-.251-4.815-.473-7.07-.693-2.322-.23-2.743-1.531-1.758-3.399 1.071-2.03 2.54-3.889 1.14-6.417-.175-.32.677-1.584 1.286-1.834.416-.173 1.339.558 1.86 1.067.651.64 1.127 1.462 1.596 2.093-.381 1.412-.783 2.932-1.359 5.081 2.107-1.233 3.57-2.09 5.072-2.967-2.428-2.639-2.44-6.281-.167-8.78 1.561-1.72 5.591-1.077 6.767 1.164.435.828.89 1.901.728 2.744-.703 3.708 1.272 5.32 4.314 6.626 2.265.973 4.31 2.488 6.387 3.87 1.42.943 1.58 2.308.222 3.348-4.774 3.665-5.246 8.089-3.527 13.651 1.023 3.295.5 7.068.69 10.625.132 2.497.298 4.99.445 7.486.1 1.575.761 3.279-1.464 4.163-.353.14-.338 1.677-.199 2.52.643 3.813-2.251 6.708-6.063 5.916.667-1.629 1.524-3.2 1.958-4.882 1.017-3.942.357-4.503-3.99-3.554 1.067 3.583.186 6.198-3.543 7.758-2.489 1.04-4.585 3.315-7.113 3.903-4.483 1.041-6.68-.25-11.386-4.96 0 .668.062 1.215-.008 1.743-.285 2.074-1.333 3.518-3.562 3.357-2.33-.162-3.359-1.716-3.224-3.97.118-1.987.651-3.983.502-5.937-.081-1.095-1.006-2.352-1.918-3.033-.34-.251-1.916.772-2.619 1.513-1.05 1.106-1.893 2.432-2.703 3.74-2.49 4.02-4.729 4.255-7.808.641-.77-.903-1.222-2.082-2.183-3.779zm90.353-35.899l.754-.165 1.56-5.516c-.23-.172-.463-.343-.693-.514-1.174.866-2.911 1.522-3.339 2.667-.313.843 1.084 2.33 1.718 3.528m26.9 46.144c-2.27.53-4.06 1.285-5.854 1.296-3.292.018-3.672-1.05-3.053-4.283.774-4.051 1.137-8.186 1.546-12.3.389-3.9.406-5.764.97-9.635.509-3.495-1.653-4.963-4.039-6.86-.38.832-.634 1.387-1.214 2.646l-2.818-4.458c.116 2.222.482 4.462.282 6.65-.262 2.928-1.118 5.796-1.44 8.724-.504 4.62-.815 9.269 2.107 14.023-1.238-.274-2.937-.146-3.602-.915-1.09-1.257-2.038-3.082-2.105-4.704-.176-4.11.269-8.24.214-12.362-.009-.848-1.092-2.368-1.683-2.373-.983-.003-2.743.87-2.833 1.55-.47 3.59-.883 7.264-.6 10.85.211 2.65 1.52 5.213 2.34 7.819-3.528 1.006-6.684-1.832-6.088-5.533.387-2.403.362-4.876.447-7.32.059-1.637-.07-3.281-.004-4.916.056-1.464.133-2.682-1.38-3.751-.705-.498-.898-2.282-.72-3.392a113.16 113.16 0 0 1 2.216-10.756c.489-1.894.34-3.307-1.155-4.663-1.134-1.024-1.954-2.39-3.054-3.46-1.96-1.894-1.463-3.403.673-4.524 3.765-1.97 6.696-5.463 7.868-9.925.483-1.84 2.245-3.704 3.923-4.753 1.33-.83 3.785-1.106 5.064-.399 1.29.711 2.203 2.876 2.425 4.521.188 1.387-.847 2.94-1.554 5.053.808.54 2.268 2.556 3.724 3.528.21-.113.42-.223.632-.335-.406-1.453-.809-3.95-1.28-5.633.369-.504.934-1.473 1.698-2.24.456-.46 1.334-.954 1.828-.803.577.177 1.45 1.359 1.325 1.56-1.782 2.872.266 5.92 1.395 8.165.282.556.25 1.274.457 2.467l-9.108.896c-.925 4.671-3.634 8.954-2.153 13.913 3.01-1.135 5.452-4.34 9.147-1.7.528.376 2.201-.412 3.066-1.041 6.769-4.932 9.33-7.85 16.026-12.878 2.614-1.96 3.064-1.98 4.554.846 4.425 8.384 3.735 6.632-3.38 9.693-3.952 1.7-3.797 1.207-7.66 3.086-.813.393-1.612 1.845-1.582 2.776.113 3.106-.776 5.226-4.079 5.819-.332.058-.61.4-1.069.717 2.64 6.308.72 10.27-1.126 16.253-.558 1.814-2.17 5.367-2.883 7.161-.972 2.467-1.115 2.836 2.005 4.145.451.19.734.786 1.584 1.755" fill="#FFF"/><path d="M64.854 12.666c.648-.508 1.458-2.187 2.891-3.312-2.856-1.43-5.257-1.593-8.256-3.096L63.94.013c.285.016.57.028.855.047.785 4.687 4.41 5.758 7.634 8.283.564.442.968 1.854.678 2.438-.373.76-1.654 1.741-2.297 1.584-2.241-.545-2.8 1.158-3.308 2.398-1.431 3.519 2.254 8.6 6.052 8.541.954-.014 1.907-.19 2.852-.325 2.04-.292 4.48.385 3.438-3.603-.662-2.537 1.877-4.48 4.438-5.22.888-.259 2.21 0 2.992.531 2.738 1.85 2.658 4.576-.02 6.59-.442.333-.89.661-1.172.868 1.632 2.174 3.637 5.033 4.555 7.293 2.003 4.918 4.174 9.894 3.232 15.51-.197 1.181.484 2.502.339 3.707-.141 1.215-.806 2.369-1.92 3.48-.894-6.033-1.443-11.917-4.094-17.57-3.666 2.783-3.765 6.529-3.486 9.937.354 4.367 1.51 8.683 2.506 12.976.256 1.113 1.214 2.058 1.825 3.097 2.321 3.956 4.76 7.852 6.818 11.94.333.658-.813 2.399-1.664 3.249-1.468 1.466-3.333 1.721-4.388 1.176-.722-2.416-.963-4.166-1.736-5.636-2.552-4.862-5.286-9.626-7.968-14.418-.546-.974-1.16-1.911-2.15-3.536-1.038 3.164-3.28 4.752-1.408 8.339 1.976 3.786 2.284 8.453 3.251 12.746.106.47-.143 1.438-.4 1.504-2.365.597-4.769 1.047-7.388 1.133 2.888-4.139.747-7.976-.316-11.326-2.307-7.277-.972-14 1.13-20.931 1.048-3.463 1.39-7.16 1.852-10.779.406-3.164-1.046-5.257-4.03-6.542-5.796-2.498-5.461-5.254-5.323-8.527.084-1.964-.278-3.953-.465-6.301" fill="#FFF"/><g transform="translate(0 110.156)"><mask id="b" fill="#fff"><use xlink:href="#a"/></mask><path d="M28.149 5.265c0 .431-.163.803-.486 1.107-.325.308-.714.46-1.162.46-.433 0-.813-.154-1.138-.47-.325-.313-.485-.679-.485-1.097 0-.433.157-.807.474-1.122.317-.314.7-.473 1.149-.473.448 0 .837.159 1.162.473.323.315.486.689.486 1.122m-2.065-3.161c0 .432-.162.803-.487 1.108a1.627 1.627 0 0 1-1.162.458 1.58 1.58 0 0 1-1.136-.469c-.326-.314-.486-.677-.486-1.097 0-.434.156-.807.475-1.122a1.56 1.56 0 0 1 1.147-.47c.45 0 .838.155 1.162.47.325.315.487.688.487 1.122m-1.926 3.16c0 .432-.163.804-.487 1.108-.326.308-.713.46-1.162.46-.432 0-.811-.154-1.136-.47-.323-.313-.487-.679-.487-1.097 0-.433.158-.807.474-1.122.32-.314.701-.473 1.149-.473.449 0 .836.159 1.162.473.324.315.487.689.487 1.122m7.725 17.394c0 1.496-.394 2.739-1.183 3.723-.866 1.093-2.049 1.636-3.549 1.636-1.33 0-2.25-.196-2.761-.584-.666.388-1.57.584-2.715.584-1.239 0-2.134-.209-2.692-.629-1.995 3.365-4.897 5.047-8.703 5.047-2.815 0-5.213-.96-7.195-2.872-1.978-1.913-2.97-4.227-2.97-6.947V8.245h3.506v14.372c0 1.793.647 3.314 1.938 4.562 1.29 1.247 2.864 1.873 4.721 1.873 1.98 0 3.598-.691 4.851-2.066 1.222-1.313 1.834-2.935 1.834-4.864V8.245h3.502V22.93c0 1.196.364 1.792 1.091 1.792.526 0 .86-.156.999-.469.076-.182.114-.621.114-1.323V8.245h3.505V22.93c0 .672.046 1.115.14 1.323.14.313.447.47.925.47.575 0 .932-.18 1.07-.538.046-.12.071-.545.071-1.28V8.246h3.501V22.66m8.447 5.358h-.23c-.698 0-1.069-.073-1.112-.223v.693c0 2.66-.992 4.89-2.972 6.682l-2.623-2.22c1.392-1.27 2.085-2.987 2.085-5.155V8.245h3.51v15.357c0 .749.369 1.12 1.111 1.12h.232v3.296" fill="#FFF" mask="url(#b)"/></g><path d="M51.703 138.175h-.234a4.33 4.33 0 0 1-2.83-1.01c-.728.674-1.64 1.01-2.736 1.01H39.87v-3.297h5.869c.758 0 1.135-.357 1.135-1.075v-10.559c0-.836-.368-1.255-1.111-1.255-.729 0-1.091.419-1.091 1.255v6.525h-3.503v-6.862c0-1.24.439-2.286 1.321-3.139.882-.85 1.964-1.274 3.249-1.274 1.24 0 2.322.416 3.25 1.253.927.838 1.392 1.848 1.392 3.026v11.03c0 .718.362 1.075 1.09 1.075h.233v3.297" fill="#FFF"/><path d="M59.314 115.377c0 .432-.163.805-.486 1.12a1.622 1.622 0 0 1-1.162.47c-.446 0-.833-.157-1.151-.47a1.53 1.53 0 0 1-.475-1.12c0-.436.16-.805.475-1.111.318-.308.705-.46 1.15-.46.45 0 .837.152 1.163.46.323.306.486.675.486 1.11m-4.002-.152c.045.432-.08.82-.373 1.16a1.598 1.598 0 0 1-1.108.577 1.586 1.586 0 0 1-1.19-.363 1.546 1.546 0 0 1-.585-1.073 1.47 1.47 0 0 1 .365-1.15 1.584 1.584 0 0 1 1.097-.561c.448-.041.849.075 1.201.351.353.274.553.629.593 1.06m5.047 22.95h-1.717c-1.13 0-2.105-.336-2.925-1.01-.696.674-1.618 1.01-2.763 1.01h-1.716v-3.297h1.716c.73 0 1.09-.357 1.09-1.075V118.4h3.505v15.402c0 .718.363 1.075 1.093 1.075h1.717v3.297" fill="#FFF"/><path d="M64.537 133.803c0 1.196-.454 2.224-1.359 3.083-.904.861-1.984 1.289-3.237 1.289h-.233v-3.297h.233c.728 0 1.091-.357 1.091-1.075v-21.319h3.505v21.319m2.178 4.372H70.2v-25.69h-3.484zm32.327 0h-.233c-3.078 0-4.618-1.703-4.618-5.113v-4.64c0-1.702-.652-3.22-1.96-4.549-1.306-1.33-2.836-1.996-4.584-1.996-1.887 0-3.478.643-4.768 1.929-1.29 1.283-1.939 2.837-1.939 4.663 0 1.837.641 3.367 1.929 4.583 1.284 1.22 2.876 1.826 4.778 1.826h3.32v3.297h-3.272c-2.832 0-5.237-.957-7.218-2.87-1.98-1.914-2.968-4.238-2.968-6.972 0-2.747.986-5.089 2.956-7.017 1.972-1.93 4.382-2.89 7.23-2.89 2.38 0 4.546.77 6.496 2.307v-2.308h3.48v14.955c0 1 .381 1.498 1.138 1.498h.233v3.297" fill="#FFF"/><path d="M116.659 133.467v-5.357c0-1.793-.421-3.265-1.257-4.418-.96-1.33-2.329-1.994-4.104-1.994-1.379 0-2.957 1.533-4.736 4.597-1.117 1.924-2.133 4.084-3.064 6.479-.108.282-.165.58-.165.895 0 .806.395 1.21 1.186 1.21h10.767c.913 0 1.373-.471 1.373-1.412m4.847 4.708h-.232a4.328 4.328 0 0 1-2.832-1.01c-.833.674-1.836 1.01-2.992 1.01h-12.117c-.661 0-1.24-.202-1.739-.606-.402.404-.85.606-1.343.606h-1.625v-3.297h.254c.68 0 1.02-.442 1.02-1.321v-21.073h3.505v13.854c2.397-5.29 5.105-7.937 8.123-7.937 2.784 0 4.957.973 6.519 2.915 1.41 1.765 2.113 4.029 2.113 6.794v5.648c0 .749.37 1.12 1.114 1.12h.232v3.297" fill="#FFF"/><g transform="translate(120.984 118.12)"><mask id="d" fill="#fff"><use xlink:href="#c"/></mask><path d="M8.227 23.193c0 .435-.165.807-.49 1.122-.323.315-.71.47-1.16.47-.448 0-.83-.155-1.15-.47a1.525 1.525 0 0 1-.477-1.122c0-.418.166-.784.492-1.096a1.57 1.57 0 0 1 1.134-.472c.45 0 .838.153 1.162.459.324.307.489.677.489 1.11m-3.995 0c0 .434-.16.806-.481 1.121-.328.315-.717.47-1.163.47a1.57 1.57 0 0 1-1.15-.47 1.524 1.524 0 0 1-.475-1.122c0-.418.16-.784.484-1.096a1.584 1.584 0 0 1 1.14-.472c.447 0 .836.153 1.164.459.32.307.481.677.481 1.11m1.997-7.51c0 1.195-.452 2.224-1.358 3.082-.905.862-1.984 1.29-3.237 1.29H.054v-3.297h1.58c.728 0 1.09-.357 1.09-1.076V.282H6.23v15.401m9.932 4.372h-.234c-.693 0-1.066-.074-1.114-.223v.693c0 2.66-.989 4.89-2.967 6.682l-2.626-2.22c1.397-1.27 2.09-2.988 2.09-5.155V.282h3.503v15.357c0 .748.374 1.12 1.114 1.12h.234v3.296" fill="#FFF" mask="url(#d)"/></g><path d="M144.29 115.397c0 .434-.16.805-.484 1.111-.326.308-.711.46-1.159.46-.433 0-.815-.158-1.138-.472-.325-.314-.488-.68-.488-1.099 0-.432.158-.805.477-1.12a1.568 1.568 0 0 1 1.149-.47c.448 0 .833.157 1.159.47.325.315.484.688.484 1.12m2.927 18.316c0 1.213-.436 2.26-1.311 3.139-.873.883-1.93 1.323-3.166 1.323h-6.036v-3.297h5.872c.76 0 1.135-.357 1.135-1.075v-10.559c0-.836-.37-1.255-1.112-1.255-.726 0-1.09.419-1.09 1.255v5.517h-3.506v-5.854c0-1.24.44-2.286 1.326-3.139.878-.85 1.963-1.276 3.247-1.276 1.237 0 2.32.417 3.25 1.255.926.838 1.391 1.848 1.391 3.026v10.94M84.59 113.744a1.57 1.57 0 0 1-.371 1.198 1.575 1.575 0 0 1-1.104.597 1.53 1.53 0 0 1-1.182-.376 1.603 1.603 0 0 1-.583-1.108c-.043-.446.08-.842.362-1.187.28-.347.646-.54 1.093-.58a1.58 1.58 0 0 1 1.195.36c.351.285.55.652.59 1.096m3.982.156c0 .448-.162.835-.487 1.158-.32.325-.707.487-1.152.487-.446 0-.83-.162-1.146-.487a1.602 1.602 0 0 1-.47-1.158c0-.448.155-.832.47-1.148.316-.316.7-.473 1.146-.473.445 0 .832.157 1.152.473.325.316.487.7.487 1.148m25.283-31.154v26.079h-5.906l-.008-17.607-2.35 17.606h-4.19l-2.479-17.202-.008 17.203H93.01v-26.08h8.741c.26 1.568.527 3.416.802 5.544l.96 6.634 1.553-12.178h8.79m10.365 15.915c-1.038.763-1.64 1.402-1.806 1.917-.165.515-.248 1.257-.248 2.223 0 1.107.071 1.82.216 2.142.145.322.431.484.859.484.406 0 .672-.127.794-.38.124-.251.185-.914.185-1.988V98.66zm-2.054-2.931h-6.082v-1.434c0-1.654.19-2.929.57-3.825.379-.896 1.141-1.689 2.286-2.377 1.145-.687 2.632-1.03 4.46-1.03 2.194 0 3.847.39 4.96 1.168 1.113.779 1.782 1.734 2.006 2.867.225 1.133.337 3.465.337 6.999v10.728h-6.306v-1.905c-.397.764-.908 1.336-1.533 1.718-.627.382-1.372.573-2.24.573a5.467 5.467 0 0 1-3.12-.959c-.947-.639-1.42-2.037-1.42-4.195V102.3c0-1.6.25-2.69.753-3.27.503-.58 1.75-1.257 3.74-2.03 2.128-.837 3.268-1.4 3.418-1.691.15-.29.225-.88.225-1.771 0-1.118-.083-1.845-.249-2.184-.166-.337-.441-.507-.826-.507-.44 0-.712.142-.82.427-.106.285-.16 1.023-.16 2.215v2.239z" fill="#FFF"/><g transform="translate(0 82.285)"><mask id="f" fill="#fff"><use xlink:href="#e"/></mask><path d="M141.376 11.381c0-1.32-.049-2.12-.144-2.4-.097-.279-.364-.418-.803-.418-.428 0-.703.161-.826.482-.123.324-.185 1.103-.185 2.336v8.86c0 1.289.064 2.094.193 2.416.128.322.406.483.834.483.417 0 .677-.147.779-.442.101-.296.152-1.013.152-2.151V11.38zm-1.846-6.217l-.112 1.888c.578-.763 1.215-1.333 1.91-1.71a4.708 4.708 0 0 1 2.279-.564c1.005 0 1.875.27 2.607.813.733.543 1.19 1.168 1.372 1.876.183.71.273 1.912.273 3.608v9.005c0 1.943-.115 3.326-.345 4.147-.23.822-.7 1.477-1.412 1.966-.711.488-1.57.733-2.576.733a4.548 4.548 0 0 1-2.23-.565c-.685-.377-1.311-.936-1.878-1.679v4.902h-6.483V5.164h6.595zM15.534.46v26.08H8.778V15.586H6.756v10.953H0V.461h6.756v9.326h2.022V.461h6.756" fill="#FFF" mask="url(#f)"/></g><path d="M25.9 98.66c-1.037.763-1.639 1.402-1.805 1.917-.166.515-.249 1.257-.249 2.223 0 1.107.073 1.82.217 2.142.144.322.43.484.858.484.407 0 .671-.127.795-.38.122-.251.185-.914.185-1.988V98.66zm-2.054-2.931h-6.082v-1.434c0-1.654.19-2.929.57-3.825.38-.896 1.142-1.689 2.287-2.377 1.144-.687 2.632-1.03 4.461-1.03 2.193 0 3.846.39 4.958 1.168 1.113.779 1.782 1.734 2.007 2.867.224 1.133.336 3.465.336 6.999v10.728h-6.306v-1.905c-.396.764-.907 1.336-1.532 1.718-.626.382-1.373.573-2.239.573a5.466 5.466 0 0 1-3.121-.959c-.947-.639-1.42-2.037-1.42-4.195V102.3c0-1.6.251-2.69.754-3.27.502-.58 1.749-1.257 3.739-2.03 2.129-.837 3.268-1.4 3.418-1.691.15-.29.225-.88.225-1.771 0-1.118-.084-1.845-.249-2.184-.166-.337-.442-.507-.826-.507-.44 0-.712.142-.82.427-.106.285-.16 1.023-.16 2.215v2.239zm17.252-8.279l-.258 2.81c.942-2.012 2.306-3.08 4.093-3.197v7.523c-1.188 0-2.06.16-2.616.482-.556.323-.899.77-1.027 1.345-.128.575-.192 1.899-.192 3.971v8.44h-6.484V87.45h6.484m13.127 11.21c-1.039.763-1.64 1.402-1.806 1.917-.166.515-.249 1.257-.249 2.223 0 1.107.072 1.82.217 2.142.145.322.43.484.859.484.405 0 .671-.127.794-.38.123-.251.185-.914.185-1.988V98.66zm-2.055-2.93h-6.082v-1.434c0-1.654.19-2.929.57-3.825.38-.896 1.141-1.689 2.286-2.377 1.145-.687 2.632-1.03 4.462-1.03 2.193 0 3.845.39 4.958 1.168 1.113.779 1.782 1.734 2.006 2.867.225 1.133.338 3.465.338 6.999v10.728H54.4v-1.905c-.396.764-.907 1.336-1.532 1.718-.627.382-1.373.573-2.24.573a5.467 5.467 0 0 1-3.12-.959c-.947-.639-1.421-2.037-1.421-4.195V102.3c0-1.6.252-2.69.755-3.27.501-.58 1.749-1.257 3.739-2.03 2.128-.837 3.268-1.4 3.418-1.691.15-.29.225-.88.225-1.771 0-1.118-.083-1.845-.25-2.184-.165-.337-.441-.507-.826-.507-.439 0-.712.142-.819.427-.107.285-.16 1.023-.16 2.215v2.239zm24.008-1.45h-5.746v-1.16c0-.989-.056-1.614-.169-1.877-.112-.263-.392-.395-.842-.395-.363 0-.637.121-.818.363-.182.241-.273.604-.273 1.087 0 .655.045 1.135.136 1.441.091.307.364.642.819 1.007.454.366 1.388.897 2.8 1.594 1.883.925 3.119 1.794 3.707 2.61.588.816.883 2.003.883 3.56 0 1.74-.225 3.053-.674 3.939-.45.886-1.201 1.567-2.255 2.045-1.054.478-2.324.717-3.811.717-1.648 0-3.057-.258-4.229-.773-1.171-.516-1.976-1.213-2.415-2.095-.439-.88-.658-2.211-.658-3.994v-1.031h5.746v1.353c0 1.15.072 1.896.216 2.239.145.344.43.516.859.516.459 0 .78-.115.962-.347.182-.23.273-.716.273-1.457 0-1.02-.118-1.66-.353-1.917-.246-.258-1.503-1.02-3.77-2.288-1.906-1.073-3.066-2.047-3.484-2.923-.417-.876-.625-1.914-.625-3.117 0-1.708.225-2.966.674-3.777.45-.81 1.211-1.436 2.286-1.876 1.075-.44 2.325-.66 3.748-.66 1.412 0 2.612.18 3.602.538.99.36 1.75.836 2.279 1.426.53.59.85 1.139.963 1.643.113.505.169 1.294.169 2.369v1.24m15.469 0h-5.745v-1.16c0-.989-.056-1.614-.169-1.877-.112-.263-.393-.395-.842-.395-.364 0-.637.121-.818.363-.182.241-.273.604-.273 1.087 0 .655.045 1.135.136 1.441.091.307.364.642.818 1.007.455.366 1.389.897 2.8 1.594 1.884.925 3.12 1.794 3.708 2.61.588.816.882 2.003.882 3.56 0 1.74-.224 3.053-.674 3.939-.449.886-1.2 1.567-2.254 2.045s-2.324.717-3.811.717c-1.648 0-3.057-.258-4.23-.773-1.17-.516-1.975-1.213-2.414-2.095-.439-.88-.658-2.211-.658-3.994v-1.031h5.745v1.353c0 1.15.073 1.896.216 2.239.145.344.431.516.859.516.46 0 .78-.115.963-.347.182-.23.273-.716.273-1.457 0-1.02-.118-1.66-.353-1.917-.246-.258-1.503-1.02-3.771-2.288-1.905-1.073-3.065-2.047-3.483-2.923-.417-.876-.626-1.914-.626-3.117 0-1.708.225-2.966.675-3.777.449-.81 1.212-1.436 2.287-1.876 1.074-.44 2.323-.66 3.747-.66 1.411 0 2.612.18 3.602.538.99.36 1.749.836 2.278 1.426.53.59.851 1.139.964 1.643.112.505.168 1.294.168 2.369v1.24" fill="#FFF"/></g></svg>