<svg xmlns="http://www.w3.org/2000/svg" viewBox="0 0 595.00001 102.6" width="595" height="102.6"><path d="M219.3 58h-4.1V32.3h-25.1V58H186V4.6h4.1v24h25.1v-24h4.1V58zm40.5-14.9h-20.4L234.7 58h-4.4l17.4-53.4h3.9L268.8 58h-4.4l-4.6-14.9zm-19.1-3.9h17.9L249.7 11l-9 28.2zm57.5-3.6H285V58h-4.4V4.6h15c2.3 0 4.5.5 6.6 1.1 2 .6 3.9 1.7 5.5 3.1 1.6 1.4 2.8 3 3.6 4.9.8 1.9 1.4 4.1 1.4 6.6 0 1.7-.3 3.4-.8 4.9-.5 1.4-1.3 2.8-2.2 3.9-.9 1.1-2 2.2-3.3 3.1-1.3.9-2.7 1.7-4.2 2.3l12.2 22.9v.6h-4.5l-11.7-22.4zM285.1 32h11.6c1.7 0 3.3-.3 4.7-.9 1.4-.6 2.7-1.4 3.8-2.3 1.1-.9 1.9-2.2 2.5-3.6.6-1.4.9-3 .9-4.7 0-1.9-.3-3.6-.9-5-.6-1.4-1.6-2.7-2.7-3.8-1.1-1.1-2.5-1.7-4.1-2.3-1.6-.6-3.3-.8-5-.9h-10.7v23.7h-.1zm68 11.1h-20.4L328 58h-4.4L341 4.6h3.9L362.1 58h-4.3l-4.7-14.9zm-19.2-3.9h17.9L342.9 11l-9 28.2zm69 5.7c0-1.3-.2-2.3-.6-3.3-.4-1-.9-1.9-1.6-2.7-.6-.8-1.4-1.4-2.3-2-.9-.6-1.9-1.1-2.8-1.6-.9-.5-2-.9-3.1-1.3-1.1-.3-2-.8-3-1.1-1.3-.3-2.5-.8-3.8-1.3-1.3-.5-2.5-1.1-3.8-1.7-1.3-.6-2.3-1.4-3.4-2.2-1.1-.8-2-1.7-2.8-2.7-.8-1-1.4-2.2-1.9-3.3-.5-1.1-.6-2.7-.6-4.1 0-2.2.5-4.2 1.4-6 .9-1.8 2.3-3.1 3.9-4.4 1.6-1.3 3.4-2 5.3-2.7 1.9-.7 4.1-.9 6.1-.9 2.3 0 4.4.3 6.4 1.1s3.9 1.7 5.5 3.1c1.6 1.4 2.8 3 3.8 4.9.9 1.9 1.4 4.1 1.6 6.4h-4.4c-.2-1.7-.6-3.3-1.3-4.7-.7-1.4-1.6-2.7-2.7-3.8-1.1-1.1-2.3-1.9-3.9-2.3-1.6-.5-3.1-.9-4.9-.9-1.6 0-3 .2-4.4.6-1.4.5-2.8.9-3.9 1.9-1.1.9-2 1.9-2.8 3.1-.8 1.3-1.1 2.7-1.1 4.4 0 1.7.5 3.3 1.3 4.5.8 1.3 1.9 2.3 3.3 3.1 1.4.8 2.7 1.6 4.2 2.2 1.5.6 3 1.1 4.4 1.4 1.3.3 2.7.8 3.9 1.4 1.3.6 2.7 1.1 3.8 1.7 1.1.6 2.3 1.4 3.4 2.2 1.1.8 2 1.7 2.8 2.8.8 1.1 1.4 2.2 1.9 3.4.5 1.3.6 2.7.6 4.2 0 2.3-.5 4.4-1.6 6.1-1.1 1.7-2.3 3.1-3.9 4.4-1.6 1.3-3.4 2-5.5 2.7-2 .6-4.1.9-6.3.9-2.3 0-4.7-.3-6.9-1.1s-4.2-1.7-6-3c-1.7-1.3-3.1-3-4.2-4.9-1.1-1.9-1.7-4.2-1.7-6.7h4.4c.2 1.9.8 3.6 1.6 5s1.9 2.7 3.1 3.8c1.3 1.1 2.7 1.7 4.4 2.2 1.7.5 3.4.8 5.3.8 1.6 0 3.1-.2 4.5-.6 1.4-.5 2.8-.9 4.1-1.9 1.3-.8 2.2-1.9 3-3.1.9-.9 1.2-2.3 1.2-4zm46.5 0c0-1.3-.2-2.3-.6-3.3-.4-1-.9-1.9-1.6-2.7-.6-.8-1.4-1.4-2.3-2-.9-.6-1.9-1.1-2.8-1.6-.9-.5-2-.9-3.1-1.3-1.1-.3-2-.8-3-1.1-1.3-.3-2.5-.8-3.8-1.3-1.3-.5-2.5-1.1-3.8-1.7-1.3-.6-2.3-1.4-3.4-2.2-1.1-.8-2-1.7-2.8-2.7-.8-1-1.4-2.2-1.9-3.3-.5-1.1-.6-2.7-.6-4.1 0-2.2.5-4.2 1.4-6 .9-1.7 2.3-3.1 3.9-4.4 1.6-1.3 3.4-2 5.3-2.7 1.9-.6 4.1-.9 6.1-.9 2.3 0 4.4.3 6.4 1.1s3.9 1.7 5.5 3.1c1.6 1.4 2.8 3 3.8 4.9 1 1.9 1.4 4.1 1.6 6.4h-4.4c-.2-1.7-.6-3.3-1.3-4.7-.6-1.4-1.6-2.7-2.7-3.8-1.1-1.1-2.3-1.9-3.9-2.3-1.6-.5-3.1-.9-4.9-.9-1.6 0-3 .2-4.4.6-1.4.5-2.8.9-3.9 1.9-1.1.9-2 1.9-2.8 3.1-.8 1.3-1.1 2.7-1.1 4.4 0 1.7.5 3.3 1.3 4.5.8 1.3 1.9 2.3 3.3 3.1 1.4.8 2.7 1.6 4.2 2.2 1.5.6 3 1.1 4.4 1.4 1.3.3 2.7.8 3.9 1.4 1.3.6 2.7 1.1 3.8 1.7 1.1.6 2.3 1.4 3.4 2.2 1.1.8 2 1.7 2.8 2.8.8 1.1 1.4 2.2 1.9 3.4.5 1.3.6 2.7.6 4.2 0 2.3-.5 4.4-1.6 6.1-1.1 1.7-2.3 3.1-3.9 4.4-1.6 1.3-3.4 2-5.5 2.7-2.1.7-4.1.9-6.3.9-2.3 0-4.7-.3-6.9-1.1s-4.2-1.7-6-3c-1.7-1.3-3.1-3-4.2-4.9-1.1-1.9-1.7-4.2-1.7-6.7h4.4c.2 1.9.8 3.6 1.6 5s1.9 2.7 3.1 3.8c1.3 1.1 2.7 1.7 4.4 2.2 1.7.5 3.4.8 5.3.8 1.6 0 3.1-.2 4.5-.6 1.4-.5 2.8-.9 4.1-1.9 1.3-.8 2.2-1.9 3-3.1.9-.9 1.2-2.3 1.2-4z" fill="#4a4a4a"/><path d="M472 4.6l10.8 30.2 11.4-30.2h5.8V58h-4.2V34.3l.3-24-11.9 31.5h-2.8l-11-31 .3 23.3v23.8h-4.2V4.5h5.5zm67.9 38.5h-20.4L514.8 58h-4.4l17.4-53.4h3.9L548.9 58h-4.4l-4.6-14.9zm-19.1-3.9h17.9L529.8 11l-9 28.2zm45-3.3V58h-4.4V4.6h16.8c2.3 0 4.5.5 6.6 1.3 2 .8 3.8 1.7 5.3 3.1 1.6 1.4 2.7 3 3.6 5 .9 2 1.3 4.1 1.3 6.6s-.5 4.7-1.3 6.6c-.8 1.9-2 3.6-3.6 4.9-1.6 1.3-3.3 2.3-5.3 3.1-2 .8-4.2 1.1-6.6 1.1h-12.4v-.4zm0-3.6h12.4c1.7 0 3.4-.3 4.9-.9 1.4-.6 2.8-1.4 3.9-2.3 1.1-.9 2-2.2 2.7-3.6.6-1.4.9-3.1.9-4.9 0-1.7-.3-3.4-.9-5-.6-1.6-1.6-2.8-2.7-3.8-1.1-.9-2.5-1.9-3.9-2.3-1.4-.5-3.1-.9-5-.9h-12.4v23.8h.1z" fill="#00b8b0"/><path d="M41.3 74.3c-.5-.2-1.1-.3-1.6-.5-.5 2-.9 4.1-1.4 6.3.3.2.5.2.8.3.6-2.2 1.4-4.2 2.2-6.1zm-18.2 4.1c-.6.2-1.3.3-1.9.6.5 1.6 1.1 3.1 1.6 4.7.6-.3 1.9-.6 1.9-.8-.5-1.5-1.1-3.1-1.6-4.5zm32.8-42.2c.9 2.5 1.6 4.5 2.3 6.6 3.9-3.3 3.6-4.4-2.3-6.6zM39.6 81.4c4.2-.5 5-1.9 3.3-6.6-1 2-1.9 4-3.3 6.6zm-.3 12.5c.3-.3.5-.6.8-1.1-.8-2-1.4-4.1-2.2-6.1h-1.3c-.6 2-1.3 3.9-1.9 6 1.6.6 3.2.9 4.6 1.2zm2.2-11.3c-.2.5-.3.9-.5 1.4 1.7.9 3.6 2 6.6 3.6v-5.8c-2.1.3-4.1.6-6.1.8zm.3 9.9c.5.2.9.3 1.4.5.8-1.4 2.5-3.8 2-4.2-1.3-1.4-3.3-2.2-5-3.3-.3.3-.6.6-.8.9.8 1.8 1.6 4 2.4 6.1zm-7.5-7.7c.2-.6.3-1.4.5-2-2-.8-4.2-1.6-6.3-2.2-.2 1.4-.5 2.8-.6 4.4h6.4v-.2zm-2.5 7.5c.5-.2.8-.3 1.3-.3.9-2 1.9-4.1 2.8-6-.3-.3-.5-.6-.8-.9-2 1.1-4.1 2.2-6 3.3.9 1.1 1.7 2.5 2.7 3.9zM3.9 83.7c3.8.3 5-.9 6-4.5.8-3 2.5-5.8 4.1-8.5.5-.9 2.3-1.6 3.4-1.6 5.2.6 9.2.2 9.4-6.1-2-2.2-5.3-4.1-5.8-6.6-.6-3.6-4.5-6-3.3-10 .2-.3-.9-1.3-1.7-1.6-1.4-.5-2.8-.5-4.9-.8 1.3-2.8 2.5-5.3 3.4-7.2 3.8 2.8 7.4 5.3 10.8 8.1.6.5 1.1 2.2.8 2.7-.6.9-1.9 1.6-3.1 2.3 1.4 4.2 4.2 6.1 7.8 5 1.6-.5 2.3-1.4 1.3-2.8-2.2-3-1.3-5.8 1.1-7.8 1.1-.9 3.4-1.3 5-.8 1.9.5 3.1 2.3 2.2 4.4-1.1 2.5-.2 4.4 1.1 6.4 1.3 1.9 2.8 4.2 2.7 6.3 0 2.5-1.6 4.9-2.5 7.4-.5.9-1.1 1.7-1.9 3 1.7.8 3.1 1.4 5 2.2.5-2 .9-3.9 1.1-5.6.3-3 .5-6 .6-8.9.2-2.2.2-4.1-2.2-5.5-.8-.5-.9-2.3-.9-3.4.2-3.4.5-7 .8-10.8-3-.3-5.5-.5-8.1-.8-2.7-.3-3.1-1.7-2-3.9 1.3-2.3 3-4.4 1.3-7.4-.2-.3.8-1.9 1.4-2 .5-.2 1.6.6 2.2 1.3.8.8 1.3 1.7 1.9 2.3-.5 1.6-.9 3.3-1.6 5.8 2.3-1.4 4.1-2.3 5.8-3.4-2.8-3-2.8-7.2-.2-10 1.7-2 6.4-1.3 7.7 1.4.5.9 1.1 2.2.8 3.1-.8 4.2 1.4 6.1 5 7.7 2.7 1.1 4.9 2.8 7.4 4.4 1.6 1.1 1.9 2.7.3 3.9-5.5 4.2-6 9.2-4.1 15.7 1.1 3.8.6 8.1.8 12.2.2 2.8.3 5.8.5 8.6.2 1.9.9 3.8-1.7 4.7-.5.2-.3 1.9-.2 2.8.8 4.4-2.5 7.7-6.9 6.7.8-1.9 1.7-3.6 2.2-5.6 1.1-4.5.5-5.2-4.5-4.1 1.3 4.1.2 7-4.1 8.9-2.8 1.3-5.3 3.8-8.1 4.5-5.2 1.3-7.7-.3-13-5.6v2c-.3 2.3-1.6 4.1-4.1 3.9-2.7-.2-3.9-2-3.8-4.5.2-2.3.8-4.5.6-6.7-.2-1.3-1.1-2.7-2.2-3.4-.3-.3-2.2.9-3 1.7-1.3 1.3-2.2 2.8-3.1 4.2-2.8 4.5-5.5 4.9-8.9.8-.9-1.4-1.4-2.8-2.5-4.7 1.7 0 2.8.2 3.9.2z" fill="#d0d0d0"/><path d="M103.2 42.2c.3 0 .6-.2.9-.2.6-2 1.3-4.2 1.7-6.3-.3-.2-.5-.5-.8-.6-1.4.9-3.3 1.7-3.8 3.1-.4.9 1.4 2.6 2 4m30.9 52.9c-2.7.6-4.7 1.4-6.7 1.4-3.8 0-4.2-1.3-3.4-4.9.9-4.7 1.3-9.4 1.7-14.1.5-4.5.5-6.6 1.1-11.1.6-4.1-1.9-5.6-4.7-7.8-.5.9-.8 1.6-1.4 3-1.3-2-2.2-3.4-3.3-5.2.2 2.5.6 5.2.3 7.7-.3 3.3-1.3 6.6-1.7 10-.6 5.3-.9 10.7 2.3 16.1-1.4-.3-3.3-.2-4.1-1.1-1.3-1.4-2.3-3.6-2.3-5.3-.2-4.7.3-9.4.3-14.1 0-.9-1.3-2.7-1.9-2.7-1.1 0-3.1.9-3.3 1.7-.5 4.1-.9 8.3-.6 12.4.3 3 1.7 6 2.7 8.9-4.1 1.1-7.7-2-6.9-6.4.5-2.8.5-5.6.5-8.5 0-1.9-.2-3.8 0-5.6 0-1.7.2-3.1-1.6-4.2-.8-.6-1.1-2.7-.8-3.9.6-4.1 1.4-8.3 2.5-12.4.6-2 .5-3.6-1.3-5.2-1.3-1.3-2.2-2.8-3.4-3.9-2.2-2.2-1.7-3.9.8-5.2 4.4-2.2 7.7-6.3 8.9-11.4.6-2 2.5-4.2 4.5-5.5 1.6-.9 4.4-1.3 5.8-.5 1.4.8 2.5 3.3 2.8 5.2.2 1.6-.9 3.4-1.7 5.8.9.6 2.7 3 4.2 4.1.3-.2.5-.3.8-.3-.5-1.7-.9-4.5-1.4-6.4.5-.6 1.1-1.7 1.9-2.5.5-.5 1.6-1.1 2-.9.6.2 1.7 1.6 1.6 1.7-2 3.3.3 6.7 1.6 9.4.3.6.3 1.4.5 2.8-3.6.3-7 .6-10.5 1.1-1.1 5.3-4.2 10.3-2.5 16 3.4-1.3 6.3-5 10.5-1.9.6.5 2.5-.5 3.4-1.3 7.7-5.6 10.7-8.9 18.3-14.7 3-2.2 3.4-2.2 5.2.9 5 9.6 4.2 7.7-3.9 11.1-4.5 1.9-4.4 1.4-8.8 3.6-.9.5-1.9 2-1.9 3.1.2 3.6-.9 6-4.7 6.7-.3 0-.6.5-1.3.8 3 7.2.8 11.7-1.3 18.6-.6 2-2.5 6.1-3.3 8.1-1.1 2.8-1.3 3.3 2.3 4.7.9.3 1.2 1 2.2 2.1" fill="#4a4a4a"/><path d="M62.1 14.6c.8-.6 1.7-2.5 3.3-3.8-3.3-1.6-6-1.9-9.4-3.6C57.6 5 59.3 2.5 61.2 0h.9c.9 5.3 5 6.6 8.8 9.6.6.5 1.1 2.2.8 2.8-.5.9-1.9 2-2.7 1.9-2.5-.6-3.1 1.3-3.8 2.8-1.6 4.1 2.5 9.9 6.9 9.9 1.1 0 2.2-.2 3.3-.3 2.3-.3 5.2.5 3.9-4.1-.8-3 2.2-5.2 5-6 .9-.3 2.5 0 3.4.6 3.1 2.2 3 5.3 0 7.5-.5.3-1.1.8-1.4.9 1.9 2.5 4.2 5.8 5.2 8.3 2.3 5.6 4.9 11.3 3.8 17.9-.2 1.4.6 2.8.3 4.2-.2 1.4-.9 2.7-2.2 3.9-1.1-6.9-1.7-13.6-4.7-20.2-4.2 3.1-4.4 7.5-3.9 11.4.5 5 1.7 10 2.8 14.9.3 1.3 1.4 2.3 2 3.6 2.7 4.5 5.5 8.9 7.8 13.6.3.8-.9 2.8-1.9 3.8-1.7 1.7-3.8 2-5 1.4-.8-2.8-1.1-4.7-2-6.4-3-5.6-6.1-11-9.1-16.6-.6-1.1-1.3-2.2-2.5-4.1-1.3 3.6-3.8 5.5-1.6 9.6 2.2 4.4 2.7 9.7 3.8 14.6.2.5-.2 1.7-.5 1.7-2.7.6-5.5 1.3-8.5 1.3 3.3-4.7.8-9.1-.3-13-2.7-8.3-1.1-16 1.3-24 1.3-3.9 1.6-8.1 2.2-12.4.5-3.6-1.3-6-4.5-7.5-6.6-2.8-6.3-6-6.1-9.7.1-2.4-.4-4.6-.6-7.3" fill="#9b9b9b"/><path d="M195.9 92.9c0 1.4-.5 2.5-1.6 3.3-1.1.8-2.3 1.1-4.1 1.1-1.9 0-3.3-.3-4.2-.8v-1.7c.6.3 1.4.5 2 .6.6.2 1.6.3 2.2.3 1.3 0 2.2-.2 2.8-.6.6-.5.9-1.1.9-1.9 0-.5-.2-.9-.3-1.4-.2-.3-.6-.6-1.1-.9-.5-.3-1.3-.6-2.3-.9-1.4-.5-2.5-1.1-3.1-1.9-.6-.8-.9-1.7-.9-2.8 0-1.3.5-2.2 1.4-2.8.9-.6 2-1.1 3.6-1.1s3 .3 4.2.8l-.6 1.6c-1.3-.5-2.5-.8-3.8-.8-.9 0-1.7.2-2.2.6-.5.5-.8.9-.8 1.7 0 .5.2.9.3 1.4.2.3.5.6.9.9.5.3 1.3.6 2.2.9 1.6.6 2.8 1.3 3.4 1.9.8.7 1.1 1.6 1.1 2.5zm8.6 3h.9c.3 0 .5-.2.6-.2v1.4c-.2.2-.5.2-.8.2-.3 0-.8.2-.9.2-2.2 0-3.4-1.3-3.4-3.6v-7h-1.7v-.8l1.7-.8.8-2.5h1.1v2.7h3.4v1.4h-3.4v6.9c0 .8.2 1.3.5 1.6.3.2.6.5 1.2.5zm16-4.7c0 1.9-.5 3.4-1.4 4.5-.9 1.1-2.3 1.6-3.9 1.6-1.1 0-2-.3-2.8-.8-.8-.5-1.4-1.3-1.9-2.2-.5-.9-.6-2-.6-3.3 0-1.9.5-3.4 1.4-4.5.9-1.1 2.3-1.6 3.9-1.6s3 .5 3.9 1.6c1 1.1 1.4 3 1.4 4.7zm-8.9 0c0 1.6.3 2.7.9 3.4.6.8 1.4 1.3 2.7 1.3 1.3 0 2-.3 2.7-1.1.7-.8.9-1.9.9-3.4s-.3-2.7-.9-3.4c-.6-.8-1.6-1.1-2.7-1.1s-2 .3-2.7 1.1c-.6.7-.9 1.8-.9 3.2zm19.3 6.1c-.8 0-1.4-.2-2-.5-.6-.3-1.1-.8-1.6-1.3h-.2c.2.6.2 1.4.2 1.9v4.9h-1.7V85.4h1.4l.3 1.6h.2c.5-.6.9-1.1 1.6-1.4.6-.3 1.3-.5 2-.5 1.6 0 2.8.5 3.6 1.6.8 1.1 1.3 2.5 1.3 4.5 0 1.9-.5 3.4-1.3 4.5-1 1.2-2.3 1.6-3.8 1.6zm-.2-10.6c-1.3 0-2 .3-2.7.9-.6.6-.8 1.7-.8 3.1v.5c0 1.7.3 2.8.8 3.6.6.8 1.4 1.1 2.7 1.1.9 0 1.9-.5 2.3-1.3.5-.8.9-1.9.9-3.4 0-1.4-.3-2.7-.9-3.3-.4-.8-1.4-1.2-2.3-1.2zm25.2 7.3c0 1.1-.5 1.9-1.3 2.5-.8.6-1.9.9-3.4.9s-2.8-.3-3.6-.8v-1.7c.6.3 1.1.5 1.9.6.8.1 1.3.3 1.9.3.9 0 1.6-.2 2.2-.5.5-.3.8-.8.8-1.4 0-.5-.2-.8-.6-1.1-.5-.3-1.1-.8-2.3-1.1-1.1-.5-1.9-.8-2.3-1.1-.5-.3-.8-.6-1.1-1.1-.3-.5-.3-.8-.3-1.4 0-.9.3-1.7 1.1-2.2.8-.6 1.9-.8 3.1-.8 1.3 0 2.5.3 3.8.8l-.6 1.4c-1.3-.5-2.2-.8-3.1-.8-.8 0-1.4.2-1.9.5s-.6.6-.6 1.1c0 .3.2.6.3.8.2.2.5.5.8.6.3.1 1.1.5 2 .9 1.4.5 2.3.9 2.8 1.6.3.8.4 1.3.4 2zm9.7 3.3c-1.7 0-3.1-.5-4.1-1.6-.9-1.1-1.6-2.5-1.6-4.4 0-1.9.5-3.4 1.4-4.5.9-1.1 2.2-1.7 3.8-1.7 1.4 0 2.7.5 3.4 1.4.7.9 1.3 2.2 1.3 3.8v1.1h-8.1c0 1.4.3 2.3 1.1 3.1.8.8 1.6 1.1 2.8 1.1 1.2 0 2.5-.3 3.8-.8v1.6c-.6.3-1.3.5-1.7.6-.7.3-1.3.3-2.1.3zm-.4-10.6c-.9 0-1.7.3-2.2.9-.5.6-.9 1.4-.9 2.5h6.1c0-1.1-.3-2-.8-2.5-.7-.6-1.3-.9-2.2-.9zm12.5 4.5l-4.1-5.8h2l3.1 4.5 3.1-4.5h2l-4.1 5.8 4.2 6h-2l-3.3-4.7-3.3 4.7h-2l4.4-6zm12.2-5.8v7.7c0 .9.2 1.7.6 2.2.4.5 1.1.8 2 .8 1.3 0 2.2-.3 2.7-.9.5-.6.8-1.7.8-3.3v-6.1h1.7v11.4h-1.4l-.3-1.6h-.2c-.3.6-.9 1.1-1.6 1.3-.6.2-1.4.5-2.2.5-1.4 0-2.5-.3-3.1-.9-.6-.6-1.1-1.7-1.1-3.3v-7.7h2.1v-.1zm20.9 11.8l-.3-1.7h-.2c-.6.8-1.1 1.3-1.7 1.6-.6.3-1.3.3-2.2.3-1.1 0-2-.3-2.7-.9-.6-.6-.9-1.4-.9-2.5 0-2.3 1.9-3.6 5.6-3.8h2v-.8c0-.9-.2-1.6-.6-2-.5-.5-1.1-.6-1.9-.6-.9 0-2 .3-3.3.9l-.6-1.4c.6-.3 1.3-.6 1.9-.8.6-.2 1.4-.3 2-.3 1.4 0 2.5.3 3.1.9.6.6.9 1.6.9 3v8.1h-1.1zm-4.1-1.3c1.1 0 2-.3 2.7-.9.6-.6.9-1.4.9-2.5v-1.1h-1.7c-1.4 0-2.5.3-3.1.6-.6.3-.9.9-.9 1.9 0 .6.2 1.1.6 1.4.2.5.9.6 1.5.6zm12.7 1.3h-1.7V80.6h1.7v16.6zm21.1 0v-7.5c0-.9-.2-1.7-.6-2.2-.5-.5-1.1-.8-2-.8-1.3 0-2.2.3-2.7.9-.5.6-.8 1.7-.8 3.3v6.3h-1.7V80.6h1.7v5c0 .6 0 1.1-.2 1.6h.2c.3-.6.8-.9 1.6-1.4.6-.3 1.4-.5 2.2-.5 1.4 0 2.5.3 3.3 1.1.8.6 1.1 1.7 1.1 3.3v7.5h-2.1zm14.6 0l-.3-1.7h-.2c-.6.8-1.1 1.3-1.7 1.6-.6.3-1.3.3-2.2.3-1.1 0-2-.3-2.7-.9-.6-.6-.9-1.4-.9-2.5 0-2.3 1.9-3.6 5.6-3.8h2v-.8c0-.9-.2-1.6-.6-2-.5-.5-1.1-.6-1.9-.6-.9 0-2 .3-3.3.9l-.5-1.4c.6-.3 1.3-.6 1.9-.8.6-.2 1.4-.3 2-.3 1.4 0 2.5.3 3.1.9.6.6.9 1.6.9 3v8.1h-1.2zm-4.1-1.3c1.1 0 2-.3 2.7-.9.6-.6.9-1.4.9-2.5v-1.1h-1.7c-1.4 0-2.5.3-3.1.6-.6.3-.9.9-.9 1.9 0 .6.2 1.1.6 1.4.4.3.9.6 1.5.6zm16.3-10.6c.5 0 .9 0 1.4.2l-.3 1.7c-.5-.2-.9-.2-1.3-.2-.9 0-1.7.3-2.5 1.1-.6.8-.9 1.7-.9 2.8v6.3H362V85.5h1.4l.2 2.2h.2c.5-.8.9-1.4 1.6-1.7.5-.4 1.1-.7 1.9-.7zM380 97.2l-.3-1.7h-.2c-.6.8-1.1 1.3-1.7 1.6-.6.3-1.3.3-2.2.3-1.1 0-2-.3-2.7-.9-.6-.6-.9-1.4-.9-2.5 0-2.3 1.9-3.6 5.6-3.8h2v-.8c0-.9-.2-1.6-.6-2-.5-.5-1.1-.6-1.9-.6-.9 0-2 .3-3.3.9l-.5-1.4c.6-.3 1.3-.6 1.9-.8.6-.2 1.4-.3 2-.3 1.4 0 2.5.3 3.1.9.6.6.9 1.6.9 3v8.1H380zm-4.1-1.3c1.1 0 2-.3 2.7-.9.6-.6.9-1.4.9-2.5v-1.1h-1.7c-1.4 0-2.5.3-3.1.6-.6.3-.9.9-.9 1.9 0 .6.2 1.1.6 1.4.4.3.9.6 1.5.6zm18.5-1.9c0 1.1-.5 1.9-1.3 2.5-.8.6-1.9.9-3.4.9s-2.8-.3-3.6-.8v-1.7c.6.3 1.1.5 1.9.6.6.2 1.3.3 1.9.3.9 0 1.6-.2 2.2-.5.5-.3.8-.8.8-1.4 0-.5-.2-.8-.6-1.1-.5-.3-1.1-.8-2.3-1.1-1.1-.5-1.9-.8-2.3-1.1-.5-.3-.8-.6-1.1-1.1-.2-.3-.3-.8-.3-1.4 0-.9.3-1.7 1.1-2.2.8-.6 1.9-.8 3.1-.8 1.3 0 2.5.3 3.8.8l-.6 1.4c-1.3-.5-2.2-.8-3.1-.8-.8 0-1.4.2-1.9.5s-.6.6-.6 1.1c0 .3.2.6.3.8.1.2.5.5.8.6.3.1 1.1.5 2 .9 1.4.5 2.3.9 2.8 1.6.1.5.4 1.3.4 2zm12.2 0c0 1.1-.5 1.9-1.3 2.5-.8.6-1.9.9-3.4.9s-2.8-.3-3.6-.8v-1.7c.6.3 1.1.5 1.9.6.8.1 1.3.3 1.9.3.9 0 1.6-.2 2.2-.5.5-.3.8-.8.8-1.4 0-.5-.2-.8-.6-1.1-.5-.3-1.1-.8-2.3-1.1-1.1-.5-1.9-.8-2.3-1.1-.4-.3-.8-.6-1.1-1.1-.3-.5-.3-.8-.3-1.4 0-.9.3-1.7 1.1-2.2.8-.6 1.9-.8 3.1-.8 1.3 0 2.5.3 3.8.8l-.6 1.4c-1.3-.5-2.2-.8-3.1-.8-.8 0-1.4.2-1.9.5s-.6.6-.6 1.1c0 .3.2.6.3.8.2.2.5.5.8.6.3.1 1.1.5 2 .9 1.4.5 2.3.9 2.8 1.6.5.7.4 1.3.4 2zm19.8 3.2v-7.7c0-.9-.2-1.6-.6-2-.4-.4-1.1-.6-1.9-.6-1.1 0-1.9.3-2.5.9-.6.6-.8 1.6-.8 3v6.4h-1.8v-7.7c0-.9-.2-1.6-.6-2-.4-.4-1.1-.6-1.9-.6-1.1 0-1.9.3-2.5.9-.5.6-.8 1.7-.8 3.3v6.1h-1.7V85.5h1.4l.3 1.6h.2c.3-.6.8-.9 1.4-1.4.6-.3 1.3-.5 2-.5 1.9 0 3 .6 3.6 2h.2c.3-.6.8-1.1 1.6-1.4.8-.3 1.4-.5 2.2-.5 1.3 0 2.3.3 3 1.1.6.6.9 1.7.9 3.3v7.5h-1.7zm12.3.1c-1.7 0-3.1-.5-4.1-1.6-.9-1.1-1.6-2.5-1.6-4.4 0-1.9.5-3.4 1.4-4.5.9-1.1 2.2-1.7 3.8-1.7 1.4 0 2.7.5 3.4 1.4.7.9 1.3 2.2 1.3 3.8v1.1h-8.1c0 1.4.3 2.3 1.1 3.1.8.8 1.6 1.1 2.8 1.1 1.2 0 2.5-.3 3.8-.8v1.6c-.6.3-1.3.5-1.7.6-.6.3-1.3.3-2.1.3zm-.4-10.6c-.9 0-1.7.3-2.2.9-.5.6-.9 1.4-.9 2.5h6.1c0-1.1-.3-2-.8-2.5-.7-.6-1.4-.9-2.2-.9zM456 97.2v-7.5c0-.9-.2-1.7-.6-2.2-.4-.5-1.1-.8-2-.8-1.3 0-2.2.3-2.7.9-.5.6-.8 1.7-.8 3.3v6.3h-1.7V85.5h1.4l.3 1.6h.2c.3-.6.9-1.1 1.6-1.4.6-.3 1.4-.5 2.2-.5 1.4 0 2.5.3 3.1 1.1.8.6 1.1 1.7 1.1 3.3v7.7H456zm10.9-1.3h.9c.3 0 .5-.2.6-.2v1.4c-.2.2-.5.2-.8.2-.3 0-.8.2-.9.2-2.2 0-3.4-1.3-3.4-3.6v-7h-1.7v-.8l1.7-.8.8-2.5h1.1v2.7h3.4v1.4h-3.4v6.9c0 .8.2 1.3.5 1.6.3.2.8.5 1.2.5zm7.7-1.2l.2.3c-.2.8-.5 1.6-.8 2.5-.3.9-.8 1.9-1.1 2.7h-1.3c.2-.8.5-1.7.6-2.8.2-1.1.5-2 .5-2.7h1.9zm16.8 1.2h.9c.3 0 .5-.2.6-.2v1.4c-.2.2-.5.2-.8.2-.3 0-.8.2-.9.2-2.2 0-3.4-1.3-3.4-3.6v-7h-1.7v-.8l1.7-.8.8-2.5h1.1v2.7h3.4v1.4h-3.4v6.9c0 .8.2 1.3.5 1.6.2.4.5.5 1.2.5zm16-4.7c0 1.9-.5 3.4-1.4 4.5-.9 1.1-2.3 1.6-3.9 1.6-1.1 0-2-.3-2.8-.8-.8-.5-1.4-1.3-1.9-2.2-.5-.9-.6-2-.6-3.3 0-1.9.5-3.4 1.4-4.5.9-1.1 2.3-1.6 3.9-1.6s3 .5 3.9 1.6c.9 1.4 1.4 3 1.4 4.7zm-9 0c0 1.6.3 2.7.9 3.4.6.8 1.4 1.3 2.7 1.3 1.3 0 2-.3 2.7-1.1.6-.8.9-1.9.9-3.4s-.3-2.7-.9-3.4c-.6-.8-1.6-1.1-2.7-1.1s-2 .3-2.7 1.1c-.7.8-.9 1.8-.9 3.2zm23.5-5.8v1.1l-2.2.3c.2.3.3.6.5.9.2.5.3.8.3 1.4 0 1.1-.5 2-1.3 2.8-.8.6-1.9 1.1-3.3 1.1-.3 0-.6 0-.9-.2-.8.5-1.1.9-1.1 1.6 0 .3.2.6.5.8.3.2.8.2 1.4.2h2c1.3 0 2.2.3 3 .8.8.5 1.1 1.3 1.1 2.3 0 1.3-.5 2.3-1.6 3-1.1.6-2.5 1.1-4.5 1.1-1.6 0-2.7-.3-3.6-.8-.9-.5-1.3-1.4-1.3-2.3 0-.8.2-1.3.6-1.9.5-.5 1.1-.9 1.9-1.1-.3-.2-.6-.3-.8-.6-.2-.3-.3-.6-.3-.9 0-.5.2-.8.3-1.1.2-.3.6-.6 1.1-.9-.6-.3-1.1-.6-1.4-1.3-.3-.6-.6-1.3-.6-2 0-1.3.3-2.3 1.1-3 .8-.7 1.9-1.1 3.3-1.1.6 0 1.1 0 1.7.2h4.1v-.4zm-9.4 13.8c0 .6.3 1.1.8 1.4.5.3 1.3.5 2.3.5 1.6 0 2.7-.2 3.3-.6.8-.5 1.1-1.1 1.1-1.9 0-.6-.2-1.1-.6-1.3-.5-.3-1.1-.3-2.2-.3H515c-.8 0-1.4.2-1.9.6-.4.5-.6.8-.6 1.6zm1.1-10c0 .8.2 1.4.6 1.9.5.5 1.1.6 1.9.6 1.7 0 2.7-.8 2.7-2.5s-.9-2.7-2.7-2.7c-.8 0-1.4.2-1.9.6-.4.5-.6 1.1-.6 2.1zm17.6 8.1c-1.7 0-3.1-.5-4.1-1.6-.9-1.1-1.6-2.5-1.6-4.4 0-1.9.5-3.4 1.4-4.5.9-1.1 2.2-1.7 3.8-1.7 1.4 0 2.7.5 3.4 1.4.7.9 1.3 2.2 1.3 3.8v1.1h-8.1c0 1.4.3 2.3 1.1 3.1.6.8 1.6 1.1 2.8 1.1 1.3 0 2.5-.3 3.8-.8v1.6c-.6.3-1.3.5-1.7.6-.7.3-1.4.3-2.1.3zm-.5-10.6c-.9 0-1.7.3-2.2.9-.6.6-.9 1.4-.9 2.5h6.1c0-1.1-.3-2-.8-2.5-.6-.6-1.3-.9-2.2-.9zm13.5 9.2h.9c.3 0 .5-.2.6-.2v1.4c-.2.2-.5.2-.8.2-.3 0-.8.2-.9.2-2.2 0-3.4-1.3-3.4-3.6v-7h-1.8v-.8l1.7-.8.8-2.5h1.1v2.7h3.4v1.4h-3.4v6.9c0 .8.2 1.3.5 1.6.2.4.6.5 1.3.5zm13.8 1.3v-7.5c0-.9-.2-1.7-.6-2.2-.5-.5-1.1-.8-2-.8-1.3 0-2.2.3-2.7.9-.6.6-.8 1.7-.8 3.3v6.3H550V80.6h1.7v5c0 .6 0 1.1-.2 1.6h.2c.3-.6.8-.9 1.6-1.4.6-.3 1.4-.5 2.2-.5 1.4 0 2.5.3 3.3 1.1.8.6 1.1 1.7 1.1 3.3v7.5H558zm12.3.1c-1.7 0-3.1-.5-4.1-1.6-.9-1.1-1.6-2.5-1.6-4.4 0-1.9.5-3.4 1.4-4.5.9-1.1 2.2-1.7 3.8-1.7 1.4 0 2.7.5 3.4 1.4.7.9 1.3 2.2 1.3 3.8v1.1h-8.1c0 1.4.3 2.3 1.1 3.1.6.8 1.6 1.1 2.8 1.1 1.3 0 2.5-.3 3.8-.8v1.6c-.6.3-1.3.5-1.7.6-.7.3-1.3.3-2.1.3zm-.4-10.6c-.9 0-1.7.3-2.2.9-.6.6-.9 1.4-.9 2.5h6.1c0-1.1-.3-2-.8-2.5-.7-.6-1.3-.9-2.2-.9zm15.9-1.4c.5 0 .9 0 1.4.2l-.3 1.7c-.5-.2-.9-.2-1.3-.2-.9 0-1.7.3-2.5 1.1s-.9 1.7-.9 2.8v6.3h-1.7V85.5h1.4l.2 2.2h.2c.5-.8.9-1.4 1.6-1.7.5-.6 1.1-.7 1.9-.7z" fill="#4a4a4a"/></svg>