<svg width="50" height="50" viewBox="0 0 50 50" xmlns="http://www.w3.org/2000/svg"><g fill="none" fill-rule="evenodd"><path d="M49.994 24.868c0-13.536-10.974-24.51-24.51-24.51C11.948.359.974 11.333.974 24.869c0 13.537 10.974 24.51 24.51 24.51 13.536 0 24.51-10.973 24.51-24.51z" fill="#FFF"/><path d="M26.542 24.27a4.796 4.796 0 0 0 4.783-4.782 4.796 4.796 0 0 0-4.783-4.782 4.796 4.796 0 0 0-4.782 4.782 4.796 4.796 0 0 0 4.782 4.783zm-10.76-2.39v-3.587H13.39v3.586H9.804v2.392h3.587v3.586h2.39v-3.586h3.588v-2.392h-3.587zm10.76 4.782c-3.228 0-9.564 1.554-9.564 4.782v2.391h19.13v-2.39c0-3.229-6.338-4.783-9.566-4.783z" fill="#9B9B9B"/></g></svg>