<svg width="40" height="40" viewBox="0 0 40 40" xmlns="http://www.w3.org/2000/svg"><path d="M36 0H4C1.8 0 0 1.8 0 4v32c0 2.2 1.8 4 4 4h32c2.2 0 4-1.8 4-4V4c0-2.2-1.8-4-4-4zm-4.6 14.6c-.2 9.2-6 15.6-14.8 16-3.6.2-6.2-1-8.6-2.4 2.6.4 6-.6 7.8-2.2-2.6-.2-4.2-1.6-5-3.8.8.2 1.6 0 2.2 0-2.4-.8-4-2.2-4.2-5.4.6.4 1.4.6 2.2.6-1.8-1-3-4.8-1.6-7.2 2.6 2.8 5.8 5.2 11 5.6-1.4-5.6 6.2-8.6 9.2-4.8 1.4-.2 2.4-.8 3.4-1.2-.4 1.4-1.2 2.2-2.2 3 1-.2 2-.4 2.8-.8-.2 1-1.2 1.8-2.2 2.6z" fill="#00B8B0" fill-rule="evenodd"/></svg>